<?xml version="1.0" encoding="UTF-8"?>
<svg id="Capa_2" data-name="Capa 2" xmlns="http://www.w3.org/2000/svg" viewBox="0 0 16.27 16.27">
  <defs>
    <style>
      .cls-1 {
        fill: black;
      }
    </style>
  </defs>
  <g id="Capa_1-2" data-name="Capa 1">
    <g>
      <path class="cls-1" d="M0,8.13C0,3.65,3.65,0,8.13,0s8.13,3.65,8.13,8.13-3.65,8.13-8.13,8.13S0,12.62,0,8.13ZM15.45,8.13c0-4.04-3.28-7.32-7.32-7.32S.81,4.1.81,8.13s3.28,7.32,7.32,7.32,7.32-3.28,7.32-7.32Z"/>
      <path class="cls-1" d="M8.56,11.85l3.92-3.92c.24-.24.24-.63,0-.86s-.63-.24-.86,0l-2.87,2.87v-5.53c0-.34-.27-.61-.61-.61s-.61.27-.61.61v5.55l-2.71-2.71c-.24-.24-.63-.24-.86,0-.12.12-.18.28-.18.43s.06.31.18.43l3.75,3.75c.24.24.63.24.86,0Z"/>
    </g>
  </g>
</svg>