<?xml version="1.0" encoding="UTF-8"?>
<svg id="Capa_1" xmlns="http://www.w3.org/2000/svg" version="1.1" viewBox="0 0 132 132">
  <!-- Generator: Adobe Illustrator 29.0.1, SVG Export Plug-In . SVG Version: 2.1.0 Build 192)  -->
  <defs>
    <style>
      .st0 {
        fill: #24292f;
      }
    </style>
  </defs>
  <path class="st0" d="M103.4,37.7c-.9-2.2-1.9-3.8-3.6-5.5-1.7-1.7-3.3-2.7-5.5-3.6-1.7-.7-4.2-1.5-8.9-1.7-5.1-.3-6.6-.3-19.4-.3h-4.3c-9,0-10.7.1-15.1.3-4.7.3-7.2,1-8.9,1.7-2.2.9-3.8,1.9-5.5,3.6s-2.7,3.3-3.6,5.5c-.7,1.7-1.5,4.2-1.7,8.9-.3,5.1-.3,6.6-.3,19.4s.1,14.3.3,19.4c.3,4.7,1,7.2,1.7,8.9.9,2.2,1.9,3.8,3.6,5.5s3.3,2.7,5.5,3.6c1.7.7,4.2,1.5,8.9,1.7,5.1.3,6.6.3,19.4.3s14.3-.1,19.4-.3c4.7-.3,7.2-1,8.9-1.7,2.2-.9,3.8-1.9,5.5-3.6,1.7-1.7,2.7-3.3,3.6-5.5.7-1.7,1.5-4.2,1.7-8.9.3-5.1.3-6.6.3-19.4s-.1-14.3-.3-19.4c-.3-4.7-1-7.2-1.7-8.9ZM66,90.6c-13.7,0-24.7-10.9-24.7-24.6s11.1-24.7,24.7-24.7,24.6,11.1,24.6,24.7-11,24.6-24.6,24.6ZM91.6,46.2c-3.2,0-5.8-2.6-5.8-5.8s2.6-5.8,5.8-5.8,5.8,2.6,5.8,5.8-2.6,5.8-5.8,5.8Z"/>
  <path class="st0" d="M66,50c-8.8,0-16,7.2-16,16s7.2,16,16,16,16-7.2,16-16-7.2-16-16-16Z"/>
  <path class="st0" d="M130.9,29.2c-.4-5.2-1.3-8.7-3.1-12.4-1.5-3-3.2-5.3-5.6-7.6-4.3-4.1-9.6-6.6-15.8-7.5-3-.4-3.6-.6-19.2-.6h-21.2c-27.1,0-35.1,0-36.6.1-5.6.5-9,1.3-12.8,3.2-2.9,1.4-5.2,3.1-7.5,5.5-4.1,4.3-6.6,9.5-7.5,15.8-.4,3-.6,3.7-.6,19.2v21.1c0,27.1,0,35,.2,36.6.5,5.4,1.3,8.8,3.1,12.6,3.4,7.1,10,12.5,17.7,14.5,2.7.7,5.6,1.1,9.4,1.2,1.6,0,18,.1,34.4.1s32.8,0,34.4-.1c4.4-.2,7-.6,9.8-1.3,7.8-2,14.2-7.3,17.8-14.5,1.8-3.6,2.7-7.2,3.1-12.3,0-1.1,0-19,0-36.8s0-35.7,0-36.8ZM113.7,85.8c-.2,5.2-1,8.6-2.2,11.7-1.2,3.2-2.8,5.8-5.5,8.5-2.7,2.6-5.3,4.3-8.5,5.5-3.1,1.2-6.6,2-11.7,2.2-5.1.3-6.8.3-19.8.3s-14.7-.1-19.8-.3c-5.2-.2-8.6-1-11.7-2.2-3.2-1.2-5.8-2.8-8.5-5.5-2.6-2.7-4.3-5.3-5.5-8.5-1.2-3.1-2-6.6-2.2-11.7-.3-5.1-.3-6.8-.3-19.8s0-14.7.3-19.8c.2-5.2,1-8.6,2.2-11.7,1.2-3.2,2.8-5.8,5.5-8.5,2.7-2.6,5.3-4.3,8.5-5.5,3.1-1.2,6.6-2,11.7-2.2,5.1-.3,6.8-.3,19.8-.3s14.7,0,19.8.3c5.1.2,8.6,1,11.7,2.2,3.2,1.2,5.8,2.8,8.5,5.5,2.6,2.7,4.3,5.3,5.5,8.5,1.1,3.1,2,6.6,2.2,11.7.3,5.1.3,6.8.3,19.8s0,14.7-.3,19.8Z"/>
</svg>