<?xml version="1.0" encoding="UTF-8"?>
<svg id="Capa_2" data-name="Capa 2" xmlns="http://www.w3.org/2000/svg" viewBox="0 0 1920 1080" preserveAspectRatio="XMinYMin slice">
  <defs>
    <style>
      .cls-1 {
        fill: #fff;
      }
    </style>
  </defs>
  <g id="Capa_1-2" data-name="Capa 1">
    <g>
      <path class="cls-1" d="M318.81,351.58c2.62,2.17,4.93,4.68,6.81,7.52s3.68,6.06,4.17,9.39c.56,3.79-2.32,5.93-5.46,7.29-1.38.6-3.3,1.16-4.4-.22-.88-1.11-1.2-2.56-2.13-3.67-1.98-2.36-5.42-2.69-8.13-1.51-1.6.69-2.88,1.81-4.02,3.1s-2.31,2.25-4.14,1.61c-1.62-.58-2.65-2.02-3.44-3.47-.83-1.53-1.56-3.15-2.12-4.79s-1-3.47-.48-5.17,2.1-2.91,3.54-3.93c3.32-2.38,6.93-4.4,10.71-5.94,1.46-.59,3.41-1.57,4.9-1.67,1.57-.11,3.23.79,4.45,1.67,1.3.95,2.55-1.22,1.26-2.16-1.44-1.05-3.13-1.76-4.91-1.96-1.53-.17-2.91.43-4.33.94-3.99,1.43-7.81,3.31-11.37,5.62-3.3,2.14-6.86,4.54-6.97,8.87-.05,2.08.62,4.11,1.41,6,.73,1.75,1.49,3.57,2.58,5.13,2.07,2.96,6.14,4.97,9.33,2.39,1.53-1.24,2.5-2.92,4.32-3.82,1.61-.8,3.74-.89,5.17.36,1.29,1.13,1.53,3.06,2.71,4.31,1.26,1.34,3.07,1.65,4.82,1.32,3.26-.61,7.27-2.96,8.64-6.09,1.8-4.11-.59-9.01-2.6-12.61-2.19-3.92-5.11-7.41-8.56-10.27-1.23-1.02-3.01.74-1.77,1.77Z"/>
      <path class="cls-1" d="M326.77,339.92c4.36,3.6,7.74,8.13,10.27,13.17,1.27,2.53,2.31,5.16,3.17,7.85s2.03,6,1.2,8.91c-.76,2.65-2.98,4.53-5.27,5.87-2.61,1.53-5.36,2.97-8.07,4.31-.99.49-2.35,1.2-3.47.76s-1.85-1.38-3.01-1.75c-2.73-.87-6.18-.25-8.8.71-1.35.49-2.63,1.13-3.96,1.66-.6.24-1.24.52-1.88.62-.78.13-1.59.05-2.38.16-1.5.21-2.63.99-3.89,1.77s-2.53,1.18-4.05,1.17c-1.27,0-2.63-.13-3.83-.56-1.61-.58-2.36-1.9-3.07-3.36-1.33-2.74-1.93-5.76-3.21-8.52-.64-1.38-1.52-2.55-2.37-3.8-.91-1.33-1.49-2.77-1.85-4.34-.73-3.12-.82-6.56.27-9.62.47-1.31,1.18-2.22,2.4-2.89s2.42-1.05,3.5-1.84c2.17-1.59,2.36-4.08,3.85-6.12,1.79-2.45,4.73-4.38,7.34-5.84,2.79-1.56,5.8-2.7,8.91-3.42,1.43-.33,2.95-.69,4.42-.62,1.62.08,3.22.62,4.75,1.13,3.54,1.19,6.59,2.68,9.53,5,1.31,1.03,3.17-.81,1.85-1.85-2.8-2.21-5.59-3.85-8.96-5.07-2.95-1.07-5.98-2.13-9.15-1.69-6.06.85-11.97,3.24-16.8,7.01-1.15.89-2.25,1.86-3.24,2.92s-1.59,2.31-2.17,3.66-1.17,2.41-2.44,3.14-2.74,1.19-3.93,2.14c-2.49,1.98-3.14,5.65-3.27,8.64-.14,3.29.44,6.99,2.04,9.91.78,1.42,1.89,2.63,2.65,4.07.84,1.59,1.35,3.32,1.92,5.02.93,2.8,2.01,6.39,4.63,8.08,2.4,1.56,6.13,1.83,8.85,1.16,1.48-.37,2.63-1.21,3.91-1.98,1.58-.94,3.18-.58,4.88-1.02,1.43-.37,2.78-1.09,4.13-1.67,1.75-.75,3.57-1.29,5.47-1.44,1.51-.12,2.99-.11,4.27.77,1.11.76,2.07,1.42,3.48,1.41,3.07-.04,6.11-2.43,8.72-3.78s5.55-2.78,7.57-5.17c2.4-2.84,2.98-6.12,2.3-9.72s-1.94-6.94-3.34-10.19c-2.73-6.34-6.67-12.19-12.03-16.61-1.29-1.06-3.15.78-1.85,1.85h0Z"/>
      <path class="cls-1" d="M334.59,327.71c6.28,5.15,10.82,11.96,14,19.39,1.58,3.71,2.82,7.56,3.82,11.46,1.05,4.11,2.44,9.02-.04,12.87-2.19,3.41-6.24,5.08-9.79,6.65-2.04.9-4.05,1.82-5.94,3.01-1.73,1.09-3.35,2.33-5.06,3.43-1.52.97-2.9,1.39-4.69,1.55-1.89.16-3.75.59-5.59,1.02-2.25.53-4.48,1.13-6.68,1.87-2.06.7-4.23,1.62-6.43,1.74s-4.16-.89-6.34-.53-3.73,1.68-5.49,2.74c-1.89,1.14-3.93,1.52-6.11,1.51-2.04-.01-4.19-.17-6.14-.82-4.29-1.43-5.09-7.07-6-10.89-1.07-4.47-2.33-8.54-5.41-12.06-1.47-1.68-2.59-3.36-3.27-5.51s-1.03-4.32-1.25-6.5c-.4-4.1-.4-9.4,2.29-12.82,2.4-3.05,6.86-3.25,9.81-5.6s3.37-6.17,4.95-9.42,5.09-5.94,8.19-7.83c3.45-2.11,7.25-3.58,11.19-4.45,1.91-.42,3.91-.79,5.87-.77,2.25.02,4.45.63,6.58,1.31,4.39,1.41,8.92,2.99,12.89,5.36,2.01,1.19,3.79,2.69,5.61,4.14,1.36,1.09,3.31-.84,1.94-1.94-1.94-1.55-3.85-3.16-5.97-4.45s-4.24-2.22-6.46-3.1c-4.47-1.78-9.3-3.86-14.17-4.05-4.16-.16-8.65,1.03-12.51,2.51s-7.68,3.61-10.88,6.39c-1.53,1.33-3.08,2.84-4.14,4.58-.98,1.62-1.51,3.47-2.14,5.24-.66,1.88-1.51,3.64-3.22,4.77s-3.68,1.67-5.51,2.5c-8.82,4.04-8.13,16.6-5.83,24.46.62,2.12,1.56,4.08,2.95,5.8,1.63,2.01,3.22,3.78,4.17,6.24,1.75,4.53,2.11,9.49,4.2,13.91s6.14,5.35,10.54,5.67c2.3.17,4.71.1,6.9-.69s3.69-2.29,5.69-3.16c2.22-.97,4.38.23,6.65.23s4.7-.87,6.91-1.63c4.28-1.46,8.72-2.67,13.23-3.1,4.18-.4,7.23-3.55,10.67-5.63,3.94-2.37,8.52-3.56,12.25-6.31,3.51-2.6,5.7-6.08,5.66-10.55s-1.54-9.3-2.93-13.62c-2.64-8.19-6.56-16.07-12.39-22.47-1.43-1.58-2.99-3.03-4.63-4.39-1.35-1.11-3.3.82-1.94,1.94h0Z"/>
      <path class="cls-1" d="M342.41,315.51c8.29,6.79,14.04,16.03,17.82,25.97,1.92,5.04,3.37,10.25,4.5,15.51s2.4,11.59-1.69,15.99c-3.7,3.98-9.15,5.31-14.01,7.27-2.68,1.08-5.2,2.37-7.51,4.1-2,1.5-3.83,3.19-5.71,4.84-1.72,1.51-3.56,2.95-5.6,4-2.48,1.28-5.11,2.21-7.76,3.07-2.99.97-6.01,2-9.07,2.72-1.41.33-2.85.58-4.31.56s-2.7-.46-4.02-.85c-2.63-.78-5.14-1.09-7.73.03s-4.86,3.32-7.68,4.23-5.74.85-8.62.62c-2.62-.21-5.51-.47-7.75-1.97s-3.27-4.44-3.98-7.03c-.82-2.97-1.29-6.02-1.89-9.04-.57-2.84-1.32-5.65-2.6-8.26s-3.37-4.68-5.38-6.9c-3.87-4.28-4.68-11.03-5.08-16.55s-.13-12.23,3.95-16.33c3.59-3.6,9.27-3.8,13.26-6.85s4.82-7.99,6.46-12.45,5.72-8.37,9.76-11.13c4.28-2.93,9.26-5.08,14.44-5.65,5.82-.64,11.8.79,17.32,2.51,5.79,1.81,11.73,4.01,16.91,7.22,2.65,1.64,5.01,3.67,7.44,5.61,1.42,1.14,3.46-.87,2.02-2.02-2.62-2.09-5.16-4.28-8.02-6.05-2.65-1.64-5.49-2.95-8.38-4.13-6.06-2.49-12.32-4.67-18.82-5.64-5.73-.85-11.31-.45-16.73,1.67-5.1,2-9.78,5.08-13.59,9.02-1.83,1.89-3.47,3.92-4.52,6.35s-1.6,4.83-2.49,7.21-2.15,4.39-4.29,5.75-4.74,2.1-7.13,3.08-4.84,2.34-6.55,4.49-2.8,4.83-3.36,7.55c-1.3,6.28-.58,13.02.9,19.21.68,2.84,1.72,5.66,3.52,7.99,1.98,2.57,4.45,4.5,5.9,7.48,2.79,5.73,2.73,12.38,4.73,18.37.9,2.7,2.2,5.22,4.6,6.87s5.31,2.08,8.1,2.36c2.99.3,6.03.42,8.99-.18s5.39-2.3,7.99-3.89c1.2-.73,2.47-1.39,3.91-1.46,1.51-.07,2.97.47,4.4.89,2.93.86,5.68.83,8.66.17,3.22-.71,6.38-1.81,9.51-2.82,2.75-.89,5.47-1.88,8.06-3.16,4.73-2.34,8.12-6.5,12.35-9.53,4.94-3.52,10.95-4.57,16.22-7.43s8.54-6.91,8.86-12.78c.17-3.06-.43-6.13-1.05-9.11-.57-2.73-1.22-5.44-1.98-8.13-3.04-10.75-7.78-21.24-15.25-29.66-1.84-2.07-3.84-3.99-5.99-5.74-1.41-1.15-3.44.85-2.02,2.02h0Z"/>
      <path class="cls-1" d="M350.23,303.3c10.25,8.36,17.11,19.93,21.51,32.28,2.22,6.21,3.87,12.61,5.12,19.08s2.53,14.47-3.07,19.67c-4.93,4.57-11.88,5.58-17.94,7.9-3.31,1.27-6.31,2.95-9.04,5.23-2.4,2.01-4.49,4.34-6.57,6.67s-3.91,4.85-6.4,6.65c-2.94,2.14-6.32,3.54-9.74,4.72s-7.27,2.47-11.04,2.85c-1.69.17-3.39.17-5.05-.24s-3.24-1.09-4.88-1.6c-3.38-1.06-6.56-.9-9.72.75s-6,4.19-9.67,5.11-7.28.69-10.88.37c-3.13-.27-6.56-.7-9.18-2.61-2.92-2.13-3.97-5.97-4.74-9.32-.9-3.88-1.32-7.85-2.04-11.77-.67-3.62-1.67-7.23-3.47-10.46-.89-1.6-2-3.06-3.27-4.38s-2.72-2.53-3.9-3.97c-2.2-2.68-3.29-6.09-4.04-9.42-.86-3.83-1.47-7.76-1.71-11.67-.42-6.68.18-14.78,5.36-19.68,4.63-4.38,11.7-4.56,16.77-8.29s6.32-9.77,8.18-15.46c.95-2.91,2.26-5.47,4.25-7.8s4.45-4.58,7.06-6.4c5.29-3.67,11.55-6.2,18-6.66,7.43-.53,15.02,1.54,21.99,3.88s14.56,5.15,20.97,9.25c3.22,2.06,6.11,4.57,9.09,6.95,1.48,1.18,3.6-.91,2.1-2.1-3.18-2.54-6.26-5.22-9.69-7.42-3.25-2.08-6.74-3.74-10.29-5.23-7.51-3.16-15.29-6.03-23.32-7.48-7.04-1.27-13.96-1.16-20.74,1.29-6.38,2.31-12.27,6.17-16.79,11.25-2.14,2.41-3.78,4.97-4.91,7.99s-1.8,6.09-2.95,9.05-2.85,5.39-5.52,7.05c-2.81,1.74-6.03,2.61-9.09,3.81s-5.97,2.7-8.15,5.19-3.68,5.77-4.48,9.08c-1.85,7.74-.77,16.11.9,23.78.76,3.51,1.9,7.08,4.03,10.02,2.27,3.12,5.53,5.28,7.47,8.67,4.08,7.13,3.64,15.81,5.79,23.55.96,3.44,2.4,6.83,5.33,9.03,2.72,2.04,6.13,2.71,9.44,3.09,3.75.43,7.58.62,11.32.05,3.99-.61,7.08-2.57,10.43-4.69,1.54-.98,3.21-1.96,5.07-2.15,1.7-.18,3.37.32,4.97.86s3.21,1.2,4.9,1.52c1.82.35,3.67.35,5.5.13,3.9-.46,7.7-1.64,11.4-2.91s7.19-2.7,10.29-4.91c2.68-1.91,4.67-4.46,6.85-6.89s4.26-4.8,6.72-6.88c2.93-2.48,6.3-4.1,9.91-5.32,3.39-1.15,6.85-2.04,10.14-3.47,2.93-1.28,5.79-2.98,7.97-5.36,2.36-2.56,3.67-5.69,4.07-9.13.45-3.87-.22-7.78-.93-11.58-.63-3.36-1.36-6.7-2.23-10.01-3.46-13.29-9.04-26.33-18.19-36.73-2.2-2.49-4.59-4.8-7.17-6.9-1.47-1.2-3.59.89-2.1,2.1h0Z"/>
      <path class="cls-1" d="M358.05,291.09c12.2,9.94,20.17,23.84,25.2,38.58,2.56,7.5,4.42,15.24,5.8,23.04.78,4.38,1.58,8.97.89,13.42-.61,3.95-2.6,7.28-5.71,9.77-6.45,5.16-15.04,5.66-22.47,8.64s-12.53,8.66-17.19,15.01c-2.46,3.35-4.42,6.93-7.7,9.58s-7.46,4.42-11.5,5.77c-4.24,1.42-8.73,2.67-13.24,2.51-4.09-.15-7.57-2.26-11.44-3.29-4.22-1.13-8.05-.15-11.72,2.09-1.87,1.14-3.63,2.45-5.55,3.51s-4.04,1.75-6.22,2.14c-4.31.77-8.85.44-13.18-.01-3.77-.39-7.93-1.18-10.74-3.94-3.05-3-4.05-7.65-4.81-11.7-.87-4.67-1.23-9.41-2.1-14.08-.81-4.38-2.13-8.79-4.57-12.56-1.22-1.88-2.71-3.51-4.35-5.03-1.54-1.44-3.17-2.83-4.4-4.56-2.41-3.37-3.57-7.41-4.4-11.41-.97-4.63-1.71-9.35-1.97-14.07-.45-8.06.57-17.62,7.07-23.27,5.63-4.9,13.8-5.2,19.87-9.41s7.93-11.57,10.05-18.46c1.05-3.43,2.36-6.67,4.58-9.52,2.33-3,5.17-5.65,8.28-7.84,6.18-4.35,13.58-7.19,21.16-7.62,9.01-.51,18.16,2.12,26.59,5.04s17.55,6.29,25.28,11.3c3.87,2.51,7.35,5.56,10.95,8.43,1.54,1.23,3.75-.94,2.19-2.19-3.8-3.04-7.48-6.26-11.57-8.91s-8.25-4.63-12.61-6.46c-8.98-3.79-18.28-7.31-27.87-9.16-4.31-.83-8.75-1.4-13.14-1.13-3.98.25-7.92,1.07-11.67,2.42-7.42,2.67-14.3,7.23-19.31,13.36-2.45,3-4.12,6.25-5.34,9.92s-1.96,7.13-3.36,10.54-3.59,6.35-6.82,8.29-7.1,3.04-10.7,4.4-7.13,3.05-9.83,5.86-4.63,6.68-5.68,10.56c-2.5,9.25-1.05,19.31.85,28.53.86,4.18,2.1,8.45,4.53,12.02s6.41,6.04,8.86,9.74c5.43,8.21,4.81,18.66,6.85,27.93.93,4.19,2.36,8.69,5.68,11.63,3.14,2.78,7.24,3.79,11.31,4.3,4.36.55,8.89.85,13.27.32,2.3-.28,4.53-.78,6.67-1.68s4.04-2.16,5.97-3.42c1.78-1.17,3.61-2.39,5.68-2.99s4.14-.34,6.18.29c4.03,1.24,7.62,3.13,11.94,3.2,4.72.07,9.42-1.21,13.86-2.7s8.43-3.24,11.98-5.97,5.67-6.3,8.23-9.88c2.16-3.01,4.42-5.98,7.08-8.57,3.14-3.06,6.78-5.21,10.93-6.63s8.58-2.25,12.76-3.77c7.56-2.75,14.3-7.85,15.58-16.27.71-4.7.02-9.43-.79-14.08-.69-3.99-1.51-7.96-2.47-11.9-3.87-15.75-10.23-31.3-20.98-43.65-2.59-2.97-5.42-5.72-8.48-8.2-1.53-1.25-3.73.93-2.19,2.19h0Z"/>
      <path class="cls-1" d="M365.87,278.89c14.27,11.62,23.39,28.02,29.02,45.32,2.84,8.72,4.88,17.69,6.37,26.74.85,5.18,1.7,10.66.56,15.86-.99,4.51-3.65,8.21-7.44,10.81-7.89,5.43-17.73,5.53-26.37,9.1s-14.34,10.76-19.05,18.52c-2.68,4.42-4.82,8.88-8.86,12.28s-8.81,5.33-13.62,6.84-10.07,2.67-15.1,1.84c-4.62-.76-8.61-3.46-13.17-4.42-5.09-1.07-9.47.72-13.7,3.45-2.1,1.36-4.14,2.82-6.4,3.92s-4.79,1.75-7.3,2.09c-5.03.68-10.28.3-15.3-.28-4.45-.51-9.2-1.64-12.32-5.09s-4.3-8.95-5.07-13.6c-.9-5.44-1.22-10.95-2.19-16.38-.91-5.1-2.45-10.25-5.36-14.59-1.42-2.11-3.15-3.92-5.03-5.62s-3.84-3.35-5.3-5.43c-2.72-3.86-4.03-8.46-4.99-13.02-1.12-5.32-2.01-10.75-2.37-16.18-.63-9.5.49-20.65,7.98-27.44,6.56-5.95,16.22-6.34,23.51-11.07,3.55-2.31,6.23-5.53,8.02-9.36s2.83-7.89,4.01-11.91,2.57-8.07,5.05-11.55,5.66-6.56,9.13-9.07c7.13-5.15,15.79-8.38,24.6-8.78,10.74-.49,21.56,2.78,31.57,6.34s20.44,7.42,29.42,13.35c4.44,2.93,8.45,6.45,12.6,9.77,1.6,1.28,3.89-.98,2.27-2.27-4.42-3.54-8.69-7.29-13.44-10.4s-9.51-5.4-14.53-7.54c-10.52-4.47-21.44-8.69-32.67-10.98-5.1-1.04-10.38-1.75-15.59-1.47-4.58.25-9.13,1.18-13.45,2.73-8.57,3.07-16.38,8.39-21.92,15.66-2.7,3.54-4.37,7.56-5.67,11.78s-2.21,8.44-4.01,12.39-4.46,7.12-8.26,9.27-8.33,3.41-12.53,4.99-8.46,3.65-11.62,7.05-5.29,7.82-6.47,12.35c-2.81,10.77-.97,22.47,1.27,33.18.98,4.69,2.38,9.46,5.09,13.46,2.98,4.41,7.76,7.12,10.68,11.56,6.22,9.44,5.37,21.44,7.48,32.11.95,4.82,2.46,9.96,6.07,13.5s8.2,4.68,12.85,5.3c5.12.69,10.46,1.06,15.62.53,2.66-.28,5.31-.79,7.81-1.77s4.6-2.29,6.76-3.72,4.22-2.89,6.6-3.75,4.63-.87,6.99-.27c4.75,1.22,8.91,3.87,13.85,4.44,5.3.62,10.77-.56,15.8-2.18s9.74-3.69,13.81-6.89c4.35-3.41,6.84-7.91,9.57-12.6,2.2-3.77,4.66-7.48,7.62-10.71,3.37-3.69,7.36-6.41,12.09-8.07s10.05-2.5,15.01-4.01c8.84-2.68,17.21-8.19,19.13-17.82,1.08-5.43.35-10.98-.52-16.38-.75-4.64-1.64-9.27-2.71-13.85-4.27-18.31-11.41-36.45-23.81-50.84-2.99-3.47-6.28-6.67-9.83-9.56-1.59-1.29-3.88.97-2.27,2.27h0Z"/>
      <path class="cls-1" d="M373.68,266.68c16.28,13.24,26.51,32.05,32.76,51.81,3.17,10.02,5.4,20.32,7.01,30.69.91,5.84,1.75,12.03.3,17.86-1.28,5.14-4.56,9.24-8.99,12.08-9.18,5.89-20.45,5.58-30.31,9.7s-16.14,12.92-20.91,22.08c-2.72,5.23-5.05,10.45-9.5,14.49-4.15,3.76-9.46,6.19-14.75,7.87-5.65,1.8-11.92,2.99-17.81,1.7-5.21-1.14-9.75-4.28-14.99-5.34-2.67-.54-5.38-.51-8.01.27s-5.18,2.28-7.54,3.81-4.84,3.31-7.49,4.54-5.64,1.96-8.57,2.31c-5.76.68-11.73.27-17.47-.41-5.12-.61-10.51-1.98-14.02-6.02s-4.78-10.39-5.59-15.75c-.96-6.37-1.22-12.83-2.36-19.18-1.04-5.78-2.87-11.65-6.32-16.47s-8.56-7.6-11.8-12.35-4.52-9.87-5.59-15.16c-1.26-6.19-2.32-12.48-2.7-18.78-.65-10.7.84-23.07,9.27-30.67,7.5-6.76,18.48-7.26,26.88-12.5,4.09-2.55,7.24-6.15,9.36-10.47s3.35-9.05,4.68-13.69,2.75-9.25,5.4-13.28,6.24-7.64,10.16-10.53c8.14-5.99,18.16-9.57,28.27-9.88,12.26-.38,24.5,3.42,35.9,7.54s23.39,8.54,33.68,15.37c5.1,3.38,9.69,7.43,14.46,11.25,1.66,1.33,4.03-1.02,2.36-2.36-5.11-4.08-10.03-8.43-15.51-12.02-5.19-3.39-10.77-6.13-16.47-8.56-11.88-5.07-24.21-9.89-36.86-12.62-5.97-1.29-12.17-2.18-18.29-1.9-5.16.24-10.29,1.25-15.16,2.96-9.81,3.44-18.76,9.62-24.8,18.17s-6.28,18.63-10.55,27.56c-2.12,4.44-5.25,7.92-9.56,10.32s-9.54,3.84-14.35,5.62-9.47,4.02-13.08,7.73c-3.81,3.92-6.29,9-7.69,14.25-3.25,12.22-1.08,25.42,1.42,37.58,1.1,5.36,2.63,10.81,5.67,15.42,3.34,5.08,8.84,8.06,12.27,13.03,7.35,10.64,6.28,24.41,8.44,36.59.99,5.58,2.6,11.53,6.65,15.72s9.44,5.56,14.82,6.27c5.85.78,11.95,1.21,17.83.61,3.03-.31,6.05-.88,8.91-1.98s5.23-2.57,7.68-4.19,4.96-3.41,7.77-4.41,5.41-.99,8.16-.26c5.32,1.41,10,4.55,15.5,5.37,6.16.92,12.5-.22,18.37-2.14,5.47-1.79,10.81-4.32,15.21-8.08,4.75-4.06,7.4-9.41,10.18-14.87,2.28-4.47,4.88-8.9,8.13-12.75,3.64-4.3,8.04-7.56,13.37-9.44s11.24-2.69,16.83-4.15c10.19-2.66,20.2-8.59,22.72-19.54,1.4-6.07.64-12.36-.28-18.44-.82-5.4-1.81-10.78-3.01-16.11-4.69-20.84-12.65-41.54-26.72-57.91-3.35-3.89-7.03-7.48-11.01-10.72-1.65-1.34-4.02,1-2.36,2.36h0Z"/>
      <path class="cls-1" d="M381.5,254.47c18.28,14.85,29.64,36.08,36.49,58.29,3.46,11.19,5.87,22.69,7.6,34.26,1.02,6.8,1.93,14.05-.06,20.77-1.64,5.54-5.5,9.85-10.38,12.81-10.69,6.49-23.73,5.62-34.97,10.62s-17.44,15.55-22.24,25.98c-2.84,6.16-5.57,12.22-10.75,16.82-4.84,4.29-10.99,7.03-17.17,8.77s-12.93,2.51-19.19.68c-5.73-1.68-10.84-5.21-16.8-6.16-3.11-.5-6.23-.25-9.19.86s-5.75,2.86-8.43,4.64-5.37,3.62-8.37,4.83-6.29,1.93-9.54,2.24c-6.31.61-12.82.18-19.1-.58-5.79-.7-11.9-2.31-15.79-6.96-4.1-4.89-5.29-11.91-6.12-18.04-.96-7.09-1.2-14.28-2.44-21.33-1.15-6.58-3.24-13.25-7.25-18.67s-9.78-8.43-13.38-13.84c-3.36-5.05-4.93-11.02-6.11-16.89-1.44-7.11-2.68-14.33-3.11-21.58-.7-12.02,1.17-25.79,10.7-34.22,8.53-7.54,20.87-8.1,30.37-13.96,4.64-2.86,8.22-6.92,10.62-11.81s3.8-10.22,5.28-15.46,3.04-10.47,5.96-15.08,6.85-8.61,11.23-11.82c9.09-6.67,20.33-10.49,31.61-10.7,13.9-.26,27.68,4.14,40.58,8.87s26.08,9.6,37.56,17.25c5.74,3.83,10.92,8.41,16.3,12.71.73.59,1.72.7,2.44,0,.61-.6.73-1.86,0-2.44-5.73-4.58-11.24-9.46-17.38-13.5-5.78-3.81-12-6.88-18.35-9.61s-13.35-5.44-20.11-7.91-13.89-4.8-21.05-6.43c-6.76-1.53-13.79-2.6-20.74-2.38-5.75.19-11.5,1.25-16.95,3.1-10.95,3.71-21,10.58-27.54,20.21s-6.85,21.09-11.68,31.12c-2.46,5.11-6.11,9.07-11.1,11.79s-10.5,4.19-15.8,6.12-10.93,4.54-15.09,8.8-6.94,9.77-8.55,15.49c-3.87,13.75-1.31,28.64,1.46,42.35,1.24,6.15,2.95,12.44,6.46,17.72,3.71,5.57,9.77,8.8,13.64,14.19,8.53,11.86,7.19,27.48,9.44,41.21,1.05,6.4,2.8,13.29,7.47,18.08,4.26,4.38,10.3,6.11,16.18,6.91,6.53.89,13.34,1.36,19.91.78,3.29-.29,6.57-.86,9.69-1.95s6.14-2.82,8.98-4.69c5.36-3.53,10.77-7.34,17.52-5.88,6.02,1.31,11.22,4.99,17.23,6.35,6.7,1.51,13.8.6,20.31-1.34s12.37-4.74,17.38-9.01c5.34-4.56,8.41-10.61,11.27-16.89,2.45-5.38,5.18-10.72,8.79-15.43,3.78-4.93,8.57-8.86,14.44-11.04,6.16-2.29,12.73-3.03,19.1-4.49,11.52-2.63,23.14-8.9,26.32-21.14,1.78-6.87.95-14.08-.06-20.99-.88-6.03-1.96-12.04-3.26-18-5.09-23.3-13.84-46.51-29.51-64.83-3.74-4.37-7.86-8.4-12.32-12.02-1.71-1.39-4.17,1.04-2.44,2.44h0Z"/>
      <path class="cls-1" d="M389.32,242.26c20.35,16.53,32.82,40.25,40.29,65,3.78,12.54,6.39,25.42,8.23,38.38,1.03,7.27,1.86,14.99-.32,22.13-1.88,6.18-6.27,10.95-11.76,14.18-11.94,7.03-26.38,5.72-38.84,11.25s-19.09,17.64-24.1,29.39c-2.95,6.91-5.84,13.83-11.39,19.11-5.22,4.96-12.01,8.17-18.9,10.09s-14.33,2.61-21.24.48c-6.45-1.99-12.21-6.05-18.96-7.11-7.2-1.14-13.24,2.01-19.07,5.87-3.23,2.13-6.44,4.38-10.08,5.77-3.37,1.3-6.93,2.04-10.52,2.37-7.12.66-14.51.19-21.59-.73-6.42-.83-13.18-2.72-17.37-8.02-4.51-5.7-5.76-13.66-6.59-20.66-.92-7.76-1.16-15.61-2.51-23.32-1.29-7.33-3.67-14.68-8.23-20.66-4.32-5.67-10.88-9.14-14.82-15.14-3.75-5.7-5.45-12.43-6.76-19.04-1.56-7.85-2.96-15.81-3.43-23.81-.78-13.37,1.4-28.61,12.02-37.94,9.43-8.29,22.99-9,33.56-15.28,5.23-3.11,9.32-7.56,12.07-12.97s4.3-11.25,5.92-17.05,3.31-11.79,6.44-17.05,7.34-9.63,12.12-13.2c9.94-7.43,22.33-11.58,34.72-11.83,15.77-.31,31.34,4.78,45.95,10.2s29,10.75,41.74,19.35c6.26,4.23,11.92,9.24,17.81,13.95,1.78,1.42,4.32-1.09,2.53-2.53-6.25-5-12.27-10.33-18.94-14.78s-13.63-7.89-20.85-11-14.81-6.04-22.31-8.8-15.34-5.37-23.26-7.21-15.33-2.95-23.06-2.75c-6.45.17-12.91,1.34-19.02,3.42-12,4.08-23.15,11.72-30,22.55s-7.2,23.66-12.78,34.75c-2.82,5.61-7.03,9.88-12.59,12.82s-11.76,4.58-17.67,6.74-11.86,4.96-16.41,9.56-7.82,10.92-9.62,17.32c-4.29,15.25-1.37,31.72,1.7,46.91,1.34,6.62,3.14,13.36,6.8,19.11,1.96,3.07,4.44,5.63,7.19,8s5.86,4.83,8.15,7.88c9.8,13,8.19,30.6,10.5,45.84,1.06,6.99,2.86,14.37,7.65,19.81s11.53,7.32,18.21,8.25c7.29,1.01,14.89,1.53,22.24.92,3.75-.31,7.5-.96,11.06-2.22s7.01-3.28,10.27-5.43c5.83-3.86,11.77-7.87,19.1-6.3,6.82,1.46,12.66,5.7,19.43,7.36,7.35,1.79,15.19.92,22.37-1.22s13.83-5.44,19.23-10.45,8.78-11.88,11.7-18.78c2.6-6.14,5.44-12.22,9.35-17.65s9.26-10.06,15.74-12.49c6.88-2.58,14.26-3.27,21.4-4.78,12.7-2.67,25.63-9.38,29.34-22.77,2.07-7.45,1.24-15.33.19-22.87-.94-6.7-2.09-13.37-3.49-19.98-5.49-25.91-15.03-51.77-32.4-72.16-4.12-4.84-8.68-9.29-13.61-13.3-1.77-1.44-4.31,1.08-2.53,2.53h0Z"/>
      <path class="cls-1" d="M397.14,230.05c22.31,18.12,35.9,44.18,43.97,71.34,4.12,13.84,6.93,28.06,8.89,42.36,1.09,7.98,1.93,16.47-.58,24.28-2.21,6.85-7.28,12.04-13.46,15.5-13.24,7.41-29.09,5.6-42.71,11.82s-20.54,20.12-25.79,33.22c-3.02,7.55-6.1,15.11-11.97,20.94s-13.04,9.22-20.63,11.31-16.29,2.64-24.06-.09c-6.89-2.42-13.16-6.73-20.5-7.8-8.12-1.18-14.83,2.71-21.35,7.04-3.41,2.27-6.85,4.55-10.72,5.98s-7.91,2.2-11.99,2.53c-7.64.61-15.55.11-23.15-.87-7.05-.92-14.45-3-19.06-8.8-4.91-6.17-6.28-14.78-7.16-22.39-.99-8.54-1.18-17.17-2.59-25.66-1.33-8.03-3.84-16.16-8.77-22.75s-12.23-10.25-16.67-16.97c-4.05-6.12-5.92-13.34-7.36-20.45-1.74-8.59-3.3-17.31-3.89-26.06-1.01-14.91,1.28-31.92,13.07-42.42,10.37-9.23,25.34-10.04,37.07-16.85,5.83-3.38,10.4-8.25,13.5-14.23s4.74-12.17,6.48-18.45,3.56-13.01,6.86-18.89,8.04-10.97,13.41-15c10.93-8.18,24.64-12.58,38.26-12.71,17.19-.16,34.07,5.41,50,11.34s32.02,11.88,46.09,21.39c6.92,4.68,13.19,10.23,19.7,15.44,1.84,1.47,4.46-1.13,2.61-2.61-6.9-5.52-13.53-11.4-20.89-16.32s-14.88-8.63-22.76-12.04-16.14-6.59-24.31-9.62-17.12-6.08-25.95-8.16c-15.34-3.62-31.14-4.53-46.25.58-13.05,4.42-25.26,12.78-32.47,24.74s-7.67,26.25-13.97,38.44c-3.18,6.15-7.91,10.76-14.05,13.94s-13.09,5-19.66,7.41-13.11,5.56-18.09,10.73-8.36,11.87-10.3,18.79c-4.7,16.75-1.39,34.85,1.99,51.53,1.5,7.4,3.52,14.97,7.74,21.33,2.21,3.34,5,6.09,8.05,8.66s6.45,5.32,8.94,8.73c10.51,14.4,8.61,33.54,11.09,50.26,1.13,7.61,3.08,15.65,8.3,21.57s12.42,7.95,19.64,8.97c7.88,1.12,16.11,1.67,24.06,1.1,4.07-.29,8.15-.93,12.04-2.19,4.08-1.33,7.76-3.39,11.34-5.73,6.58-4.31,13.27-9.23,21.58-7.56,7.57,1.52,14.02,6.25,21.43,8.29,7.9,2.17,16.43,1.44,24.23-.78s15.19-5.93,21.06-11.45c6.2-5.84,9.7-13.46,12.81-21.25,2.75-6.87,5.66-13.7,9.86-19.83s9.83-11.24,16.88-13.94c7.49-2.86,15.56-3.54,23.38-5.03,13.94-2.65,28.36-9.64,32.79-24.2,2.45-8.08,1.65-16.73.54-24.96-.99-7.37-2.22-14.71-3.72-21.99-5.88-28.54-16.22-57.1-35.31-79.56-4.51-5.3-9.49-10.19-14.89-14.58-1.83-1.48-4.45,1.11-2.61,2.61h0Z"/>
      <path class="cls-1" d="M404.96,217.84c24.27,19.71,38.97,48.12,47.66,77.68,4.46,15.18,7.52,30.78,9.57,46.46,1.15,8.78,2,18.1-.98,26.62-2.56,7.32-8.21,12.8-14.92,16.42-14.57,7.88-31.95,5.53-46.78,12.52s-21.9,22.64-27.4,37.07c-3.23,8.49-6.66,16.98-13.28,23.45-6.2,6.05-14.32,9.97-22.66,12.07-8.61,2.17-17.62,2.2-25.96-1.01-7.44-2.86-14.29-7.46-22.35-8.45-8.7-1.07-15.95,3.45-22.89,8.06-3.91,2.6-7.85,5.1-12.32,6.62-4.08,1.39-8.35,2.13-12.65,2.44-8.49.61-17.34.1-25.76-1.13-7.67-1.12-15.61-3.6-20.36-10.15-5.06-6.98-6.46-16.19-7.35-24.55-1.01-9.48-1.16-19.06-2.81-28.47-1.53-8.73-4.44-17.43-9.97-24.47-5.39-6.86-13.46-10.94-18.15-18.43-4.25-6.78-6.17-14.7-7.71-22.46-1.87-9.45-3.6-19.01-4.18-28.64-.97-16.23,1.89-34.64,14.98-45.76,11.41-9.7,27.5-10.6,40.19-17.99,6.31-3.68,11.28-8.96,14.65-15.44s5.26-13.52,7.18-20.49,3.79-13.88,7.22-20.2,8.58-12.03,14.43-16.44c11.97-9.03,27.15-13.7,42.08-13.67,18.78.04,37.08,6.17,54.46,12.7s34.63,12.9,49.86,23.21c7.58,5.13,14.45,11.22,21.59,16.93,1.9,1.52,4.61-1.16,2.69-2.69-7.54-6.04-14.8-12.47-22.84-17.85s-16.09-9.35-24.61-13.06-17.43-7.13-26.25-10.43c-9.21-3.45-18.53-6.66-28.1-9-16.67-4.07-33.94-5.26-50.45.13-14.33,4.68-27.78,13.82-35.48,27.03s-8.18,28.64-15.07,41.9c-3.48,6.69-8.64,11.73-15.33,15.19s-14.24,5.46-21.39,8.05-14.09,5.85-19.54,11.25-9.37,12.77-11.6,20.3c-5.38,18.18-1.76,37.79,1.83,55.96,1.59,8.07,3.67,16.32,8.09,23.37,2.29,3.66,5.21,6.73,8.49,9.52,3.45,2.93,7.06,5.68,9.9,9.23,12.22,15.26,10.05,36.68,12.53,54.88,1.15,8.47,3.12,17.38,8.76,24.09,5.28,6.28,13.37,8.94,21.24,10.09,8.58,1.26,17.55,1.85,26.21,1.3,4.44-.28,8.9-.94,13.16-2.27s8.52-3.58,12.43-6.12c7.18-4.67,14.48-10.27,23.56-8.65,8.2,1.47,15.19,6.55,23.05,9.06,8.42,2.69,17.64,2.22,26.11,0,8.44-2.21,16.59-6.23,23.02-12.18,6.87-6.36,10.77-14.76,14.07-23.36,2.97-7.75,5.94-15.51,10.48-22.5s10.43-12.62,18.14-15.65c8.08-3.19,16.85-3.84,25.34-5.32,15.37-2.67,31.47-10.05,36.45-26.08,2.72-8.77,1.88-18.21.69-27.16-1.06-7.99-2.36-15.95-3.96-23.85-6.28-30.95-17.36-61.96-37.97-86.37-4.93-5.84-10.4-11.22-16.34-16.04-1.89-1.53-4.6,1.15-2.69,2.69h0Z"/>
      <path class="cls-1" d="M412.77,205.63c26.28,21.34,42.09,52.17,51.39,84.2,4.75,16.37,7.99,33.19,10.15,50.08,1.21,9.5,2.1,19.58-1.17,28.78-2.82,7.92-9.01,13.83-16.32,17.71s-15.92,5.7-24.32,6.9c-9.11,1.31-18.41,2.38-26.79,6.45-16,7.79-23.19,25.16-28.94,40.9-3.39,9.28-7.11,18.59-14.29,25.64-6.55,6.44-15.13,10.66-23.99,12.86-9.32,2.32-19.05,2.2-28.04-1.35-8.14-3.21-15.66-8.32-24.53-9.35-9.35-1.09-17.15,3.81-24.6,8.77-4.05,2.69-8.15,5.32-12.76,6.96s-9.45,2.5-14.32,2.85c-9.13.65-18.65.1-27.71-1.17-8.36-1.18-17.01-3.81-22.26-10.87-5.65-7.58-7.12-17.78-8.05-26.93-1.04-10.26-1.16-20.63-2.92-30.81-1.61-9.29-4.67-18.58-10.51-26.11s-14.51-11.79-19.67-19.74c-4.82-7.42-6.96-16.19-8.66-24.77-2.03-10.23-3.93-20.58-4.58-31-1.11-17.67,2.03-37.69,16.27-49.79,12.46-10.58,30.02-11.51,43.86-19.6,6.79-3.97,12.14-9.66,15.78-16.63s5.7-14.57,7.77-22.09c2.09-7.61,4.15-15.35,7.91-22.34s9.19-12.98,15.5-17.71c12.89-9.66,29.25-14.54,45.29-14.42,20.39.15,40.2,6.86,59.07,13.98,18.48,6.97,37.37,13.97,53.83,25.11,8.25,5.58,15.71,12.22,23.48,18.43,1.96,1.56,4.75-1.2,2.78-2.78-8.19-6.55-16.06-13.55-24.8-19.4s-17.48-10.17-26.75-14.2-18.88-7.72-28.43-11.31-19.93-7.21-30.21-9.75c-17.92-4.44-36.57-5.83-54.37-.13-15.41,4.93-29.84,14.68-38.05,28.89s-8.85,31.28-16.4,45.74c-3.77,7.22-9.36,12.68-16.58,16.43s-15.36,5.91-23.09,8.69-15.38,6.29-21.36,12.13-10.35,13.97-12.78,22.23c-5.8,19.7-1.82,40.89,2.07,60.56,1.76,8.9,4.06,18.01,9.06,25.71,2.55,3.93,5.79,7.18,9.37,10.18s7.56,6.06,10.55,9.9c13.01,16.64,10.56,39.57,13.18,59.27,1.22,9.13,3.31,18.74,9.38,25.97,5.71,6.81,14.47,9.68,23,10.93,9.31,1.36,19.03,1.99,28.42,1.4,4.81-.31,9.64-1.02,14.26-2.46s9.22-3.88,13.45-6.63c7.72-5.03,15.62-11.1,25.42-9.4,9.03,1.56,16.7,7.21,25.31,10.04,17.69,5.82,39.54-.4,52.81-13.11,14.03-13.43,15.82-34.06,25.78-50.06,4.67-7.51,10.99-13.88,19.28-17.25,8.8-3.57,18.43-4.17,27.7-5.68,16.65-2.71,34.22-10.54,39.69-27.88,2.98-9.45,2.1-19.65.85-29.31-1.12-8.6-2.49-17.17-4.19-25.67-6.67-33.41-18.5-66.91-40.68-93.3-5.35-6.37-11.29-12.22-17.75-17.46-1.95-1.58-4.74,1.18-2.78,2.78h0Z"/>
      <path class="cls-1" d="M420.59,193.42c28.4,23.06,45.35,56.47,55.24,91.11,5.04,17.64,8.47,35.77,10.71,53.98,1.25,10.2,2.09,21.08-1.67,30.87-3.24,8.44-10.1,14.63-18.02,18.66s-17.37,5.86-26.49,7.07c-9.72,1.29-19.66,2.44-28.53,6.92-17.06,8.61-24.3,27.53-30.28,44.45-3.54,10-7.47,20.07-15.08,27.74-6.95,7.01-16.12,11.62-25.65,13.97-10.15,2.5-20.68,2.18-30.4-1.8-8.83-3.61-17.06-9.19-26.76-10.16s-18.44,4.51-26.45,9.83c-4.36,2.9-8.8,5.65-13.78,7.36s-10.08,2.56-15.26,2.91c-9.8.66-20,.08-29.73-1.3-8.99-1.28-18.28-4.14-23.92-11.75-6.08-8.21-7.64-19.21-8.6-29.11-1.08-11.04-1.15-22.19-3.03-33.15-1.71-9.99-4.98-19.97-11.27-28.05s-15.67-12.65-21.24-21.2c-5.2-7.98-7.51-17.42-9.34-26.66-2.19-11.01-4.25-22.15-4.98-33.37-1.23-18.94,2.08-40.32,17.15-53.46,13.49-11.76,32.76-12.69,47.88-21.52,7.3-4.26,13.05-10.36,16.98-17.84s6.14-15.6,8.35-23.66,4.42-16.5,8.36-24.06,9.73-14.1,16.53-19.23c13.86-10.47,31.57-15.6,48.85-15.4,22.01.25,43.31,7.56,63.67,15.27,19.83,7.51,40.09,15.03,57.76,26.99,8.91,6.04,16.97,13.21,25.36,19.92,2.01,1.61,4.9-1.23,2.86-2.86-8.84-7.07-17.33-14.62-26.74-20.93s-18.65-10.87-28.53-15.19c-9.96-4.35-20.13-8.24-30.29-12.09s-21.28-7.78-32.26-10.58c-19.45-4.96-39.8-6.65-59.19-.53-16.59,5.24-32.11,15.74-40.74,31.16-8.59,15.34-9.34,33.63-17.48,49.13-4.08,7.77-10.13,13.66-17.91,17.7-7.92,4.11-16.63,6.38-25,9.38s-16.91,6.93-23.42,13.43-10.91,14.98-13.48,23.8c-6.16,21.16-1.82,43.89,2.37,65,1.9,9.56,4.37,19.36,9.75,27.62,2.75,4.22,6.24,7.7,10.1,10.9s8.15,6.5,11.39,10.62c14.07,17.91,11.3,42.64,14.06,63.85,1.3,9.99,3.58,20.63,10.41,28.42,6.2,7.08,15.49,10.03,24.53,11.33,9.88,1.42,20.18,2.09,30.15,1.49,5.11-.31,10.24-1.04,15.15-2.51,5.19-1.56,9.92-4.03,14.45-6.95,8.47-5.47,17.01-12.24,27.75-10.51,9.67,1.56,17.92,7.62,27.04,10.83,18.92,6.66,42.27.32,56.57-13.36,15.3-14.63,16.97-37.09,27.46-54.65,4.84-8.1,11.42-15.07,20.21-18.81,9.38-4,19.79-4.58,29.76-6.07,17.91-2.68,36.99-10.66,43.3-29.15,3.43-10.06,2.59-21.05,1.29-31.41-1.16-9.27-2.61-18.51-4.41-27.67-7.05-36.08-19.68-72.33-43.6-100.84-5.74-6.84-12.11-13.13-19.05-18.76-2.01-1.63-4.89,1.22-2.86,2.86h0Z"/>
      <path class="cls-1" d="M428.41,181.21c30.38,24.66,48.43,60.44,58.94,97.51,5.35,18.88,8.98,38.29,11.33,57.77,1.32,10.91,2.2,22.57-1.88,33.03-3.53,9.06-10.92,15.65-19.46,19.94-9.01,4.53-18.9,6.19-28.81,7.42-10.45,1.3-21.19,2.52-30.66,7.49-18.15,9.53-25.39,30.07-31.64,48.24-3.65,10.62-7.8,21.35-15.77,29.55-7.35,7.57-17.1,12.59-27.3,15.08-10.72,2.62-21.88,2.21-32.14-1.99-9.25-3.79-17.85-9.67-27.94-11.03-10.89-1.47-19.92,3.99-28.64,9.79-4.77,3.18-9.58,6.3-15.01,8.25s-10.79,2.89-16.35,3.31c-10.53.79-21.45.14-31.91-1.24-9.64-1.28-19.69-4.18-25.95-12.14-6.78-8.62-8.5-20.53-9.54-31.12-1.16-11.84-1.18-23.79-3.09-35.56-1.74-10.73-5.14-21.53-11.81-30.27-6.56-8.59-16.71-13.54-22.79-22.55-5.71-8.46-8.26-18.55-10.25-28.43-2.42-12-4.69-24.15-5.51-36.38-1.36-20.36,2.2-43.34,18.42-57.46,14.24-12.4,34.48-13.6,50.59-22.59,7.9-4.41,14.25-10.76,18.61-18.68s6.82-16.63,9.18-25.26,4.67-17.8,8.75-26.02,10.3-15.57,17.69-21.24c14.71-11.26,33.66-16.68,52.06-16.5,23.66.23,46.53,8.12,68.4,16.43s43.07,16.15,62.04,29.01c9.58,6.49,18.24,14.2,27.26,21.42,2.07,1.66,5.04-1.27,2.95-2.95-9.48-7.59-18.59-15.7-28.7-22.47s-20.03-11.68-30.64-16.31c-10.69-4.67-21.6-8.85-32.51-12.98-11.6-4.39-23.32-8.55-35.36-11.58-20.59-5.18-42.11-6.87-62.6-.38-17.86,5.66-34.47,17.09-43.4,33.91-8.75,16.48-9.62,35.91-18.45,52.32-4.57,8.5-11.34,14.74-19.95,19.03s-17.81,6.64-26.73,9.87c-8.91,3.23-17.6,7.35-24.39,14.13-7.16,7.16-11.92,16.46-14.64,26.15-6.37,22.71-1.63,47.04,2.92,69.63,2.02,10.01,4.67,20.25,10.32,28.9,3.08,4.71,7.03,8.53,11.37,12.07s8.78,7.02,12.18,11.54c14.68,19.51,11.53,45.74,14.54,68.55,1.41,10.65,3.94,22,11.4,30.16,6.79,7.44,16.79,10.4,26.46,11.73,10.63,1.47,21.68,2.18,32.4,1.45,5.47-.37,10.95-1.2,16.19-2.85,5.53-1.74,10.56-4.47,15.4-7.63,9.08-5.92,18.28-12.91,29.77-10.79,10.21,1.88,18.91,8.21,28.57,11.68,20.36,7.31,45.53.52,60.64-14.63s17.47-39.55,28.26-58.33c5.08-8.84,12.04-16.49,21.53-20.6,10.07-4.36,21.31-4.89,32.03-6.41,18.95-2.69,39.2-10.89,46.28-30.25,3.98-10.89,3.09-22.93,1.7-34.21-1.22-9.91-2.75-19.78-4.65-29.58-7.46-38.58-20.86-77.36-46.4-107.85-6.13-7.32-12.94-14.04-20.35-20.06-2.06-1.68-5.03,1.26-2.95,2.95h0Z"/>
      <path class="cls-1" d="M436.23,168.99c32.35,26.26,51.52,64.41,62.64,103.9,5.67,20.13,9.49,40.8,11.96,61.55,1.41,11.88,2.38,24.76-2.44,36.04-4.04,9.46-12.02,16.25-21.13,20.64-9.62,4.64-20.09,6.25-30.59,7.49-10.97,1.3-22.25,2.55-32.18,7.76-19.43,10.19-26.85,32.36-33.37,51.8-3.83,11.42-8.19,23.02-16.65,31.89-7.79,8.18-18.19,13.61-29.12,16.23-11.69,2.8-23.76,2.07-34.82-2.69-9.75-4.2-18.98-10.37-29.73-11.65-11.48-1.37-21.04,4.6-30.2,10.7-5.21,3.47-10.48,6.81-16.43,8.86-5.53,1.9-11.33,2.9-17.15,3.32-11.36.81-23.2.14-34.47-1.45-10.35-1.46-21.03-4.76-27.49-13.55-6.96-9.46-8.68-22.08-9.71-33.46-1.14-12.61-1.15-25.32-3.24-37.83-1.9-11.37-5.61-22.74-12.78-31.92s-18.16-14.48-24.57-24.4c-5.97-9.24-8.56-20.16-10.66-30.82-2.49-12.63-4.89-25.39-5.7-38.26-1.36-21.55,2.62-45.75,19.76-60.65,15.33-13.32,37.11-14.53,54.4-24.28,8.47-4.78,15.22-11.67,19.84-20.22s7.15-17.69,9.65-26.86,4.96-18.91,9.28-27.65,10.62-16.22,18.31-22.13c15.78-12.12,36.23-17.66,55.94-17.69,25.19-.04,49.36,8.67,72.58,17.58s45.98,17.25,66.27,31.01c10.24,6.94,19.5,15.19,29.15,22.91,2.13,1.71,5.18-1.31,3.03-3.03-10.13-8.11-19.86-16.78-30.66-24.01-10.3-6.9-21.41-12.49-32.75-17.44s-23.29-9.51-35.03-14c-12.15-4.65-24.41-9.12-37.02-12.37-21.98-5.66-45-7.03-66.88-.18-18.88,5.91-36.4,17.77-45.8,35.57-9.35,17.7-10.26,38.55-19.77,56.14-4.77,8.83-11.83,15.46-20.76,20s-19.44,7.31-29.18,10.83-18.76,7.81-26.01,15.03-12.42,16.92-15.38,26.89c-7.2,24.3-2.09,50.39,2.74,74.64,2.13,10.68,4.87,21.6,10.77,30.88,3.06,4.82,6.96,8.82,11.34,12.45,4.77,3.95,9.76,7.64,13.64,12.53,16.21,20.43,12.79,48.78,15.82,73.02,1.43,11.42,3.96,23.55,11.74,32.47,7.06,8.11,17.69,11.45,28.01,12.93,11.31,1.62,23.09,2.37,34.5,1.68,5.84-.35,11.7-1.19,17.31-2.87,6.17-1.85,11.75-4.85,17.12-8.36,9.51-6.21,19.18-13.57,31.22-11.61,10.95,1.78,20.31,8.6,30.54,12.48,21.78,8.24,48.79,1.26,64.94-15.24,16.81-17.18,18.35-42.66,29.78-62.92,5.26-9.32,12.49-17.41,22.41-21.83,10.6-4.72,22.54-5.22,33.88-6.73,20.39-2.72,42.33-11.19,50.04-32.03,4.19-11.33,3.38-23.87,1.98-35.64-1.29-10.8-2.94-21.57-4.99-32.26-7.86-41.07-22.05-82.39-49.21-114.87-6.52-7.8-13.77-14.96-21.66-21.36-2.12-1.72-5.17,1.29-3.03,3.03h0Z"/>
      <path class="cls-1" d="M444.05,156.78c34.33,27.87,54.6,68.38,66.33,110.29,6.05,21.62,10.13,43.86,12.68,66.16,1.41,12.37,2.27,25.73-2.78,37.44-4.33,10.05-12.87,17.23-22.58,21.87-10.5,5.01-21.91,6.59-33.34,7.87s-23.54,2.67-33.95,8.36c-20.34,11.11-27.77,34.72-34.53,55.28-4.06,12.35-8.75,24.93-17.94,34.46-8.33,8.65-19.41,14.36-31.07,17-12.47,2.82-25.17,1.67-36.84-3.55-10.3-4.6-20.17-11.07-31.63-12.27-12.49-1.3-22.77,5.72-32.68,12.28-5.13,3.39-10.36,6.57-16.2,8.58s-12.32,3.13-18.66,3.56c-11.97.81-24.41.1-36.29-1.57-10.98-1.54-22.31-5.04-29.19-14.32-7.48-10.07-9.3-23.61-10.37-35.75-1.18-13.39-1.13-26.89-3.33-40.18-2-12.06-5.93-24.12-13.54-33.85s-19.08-15.16-25.9-25.47c-6.34-9.6-9.17-20.99-11.4-32.14-2.69-13.45-5.28-27.05-6.24-40.74-1.61-23.01,2.36-48.87,20.45-65.03,16.12-14.39,39.27-15.79,57.75-25.89,8.95-4.89,16.22-11.94,21.25-20.82s7.87-18.68,10.54-28.41,5.22-20.19,9.65-29.6,11.12-17.76,19.41-24.26c16.45-12.9,37.98-18.78,58.67-18.9,27.05-.15,53.02,9.18,77.94,18.74s48.96,18.37,70.55,33.02c10.91,7.4,20.77,16.18,31.04,24.41,2.19,1.75,5.33-1.34,3.11-3.11-10.78-8.63-21.13-17.85-32.62-25.56-10.96-7.35-22.78-13.29-34.86-18.57s-25.04-10.22-37.66-15.05-25.71-9.58-38.99-13.01c-23.44-6.04-48.05-7.58-71.36-.17-20.13,6.4-38.54,19.27-48.19,38.47-9.54,18.99-10.53,41.23-21.04,59.77-5.27,9.3-13.03,16.07-22.58,20.75s-20.18,7.43-30.28,11.08-20.23,8.49-27.96,16.39-13.02,18.15-16.07,28.8c-7.4,25.81-1.87,53.51,3.31,79.21,2.27,11.27,5.24,22.8,11.58,32.54,3.37,5.17,7.65,9.4,12.41,13.28s9.94,7.8,13.9,12.78c17.47,21.94,13.46,52.45,16.8,78.48,1.5,11.67,4.16,23.89,11.89,33.14s18.98,12.63,30.16,14.22c12.02,1.71,24.55,2.5,36.67,1.77,12.75-.77,24.46-4.17,35.25-11.08,10.38-6.65,20.76-15.13,33.9-13.29,11.69,1.64,21.73,8.96,32.52,13.23,23.03,9.13,51.53,2.2,68.81-15.28,18.11-18.32,19.59-45.61,31.48-67.42,5.41-9.92,12.89-18.69,23.3-23.51,11.4-5.28,24.35-5.71,36.61-7.29,21.65-2.79,44.99-11.63,53.25-33.74,4.48-12,3.65-25.3,2.18-37.78-1.32-11.22-3.01-22.41-5.1-33.51-8.24-43.8-23.21-87.93-52.15-122.57-6.91-8.27-14.59-15.87-22.96-22.66-2.18-1.77-5.32,1.33-3.11,3.11h0Z"/>
      <path class="cls-1" d="M451.87,144.57c36.5,29.63,57.92,72.81,70.23,117.41,6.29,22.79,10.54,46.22,13.16,69.71,1.47,13.2,2.3,27.57-3.42,39.94-4.85,10.49-14.01,17.9-24.34,22.64-11.1,5.1-23.1,6.62-35.12,7.91s-25.11,2.79-36.09,9.04c-21.54,12.26-28.79,37.75-35.94,59.72-4.14,12.73-9.06,25.67-18.43,35.55-8.74,9.21-20.42,15.32-32.75,18.08-13.53,3.03-27.12,1.5-39.69-4.28-10.83-4.98-21.37-11.8-33.54-12.83-12.92-1.09-23.6,6.26-33.86,13.05-5.68,3.76-11.46,7.22-17.97,9.36s-13.12,3.16-19.85,3.57c-12.65.76-25.85.04-38.39-1.82-11.68-1.73-23.57-5.65-30.66-15.72-7.7-10.94-9.5-25.26-10.56-38.24-1.15-14.15-1.1-28.41-3.51-42.44-2.19-12.74-6.47-25.4-14.66-35.58-8.28-10.3-20.67-16.14-27.77-27.55-6.37-10.23-9.19-22.19-11.5-33.88-2.79-14.18-5.55-28.49-6.5-42.93-1.62-24.62,3.03-52.27,22.89-69.03,17.47-14.75,41.97-16.04,61.41-27.16,9.33-5.34,16.77-13,21.9-22.45s8.06-19.8,10.85-30.07,5.65-21.71,10.57-31.76,11.86-18.29,20.54-24.9c17.78-13.54,40.81-19.49,62.94-19.18,28.3.39,55.39,10.22,81.5,20.25,25.64,9.85,51.84,19.53,74.64,35.17,11.29,7.75,21.54,16.86,32.21,25.41,2.25,1.8,5.47-1.38,3.2-3.2-11.2-8.96-21.95-18.54-33.84-26.6s-24.07-14.2-36.85-19.81-25.93-10.63-39-15.65c-13.72-5.26-27.53-10.35-41.75-14.11-24.76-6.55-50.81-8.58-75.58-1.02-21.34,6.51-40.97,19.92-51.3,40.14s-11.33,43.33-22.04,63.05c-5.38,9.91-13.31,17.36-23.33,22.47s-21.79,8.22-32.73,12.13-21.06,8.61-29.28,16.57c-8.66,8.38-14.49,19.36-17.88,30.85-8.07,27.31-2.2,56.57,3.22,83.8,2.35,11.81,5.36,23.88,11.81,34.21,3.34,5.36,7.6,9.87,12.45,13.9,5.36,4.45,11.05,8.53,15.52,13.93,18.92,22.89,14.78,55.34,18.09,82.82,1.49,12.4,4.15,25.45,12.16,35.42s19.78,13.76,31.65,15.52c12.69,1.89,25.94,2.7,38.75,2.03,13.82-.73,26.48-4.29,38.16-11.78,10.75-6.89,21.52-15.69,35.1-14.18,12.73,1.42,23.73,9.57,35.37,14.24,24.31,9.75,54.35,2.59,72.52-16.06,18.96-19.46,20.45-48.19,32.66-71.36,5.55-10.53,13.26-19.97,24.14-25.23,11.95-5.78,25.66-6.23,38.61-7.79,22.87-2.75,47.77-11.6,56.96-34.77,4.99-12.59,4.27-26.64,2.78-39.83-1.37-12.15-3.2-24.27-5.44-36.29-8.64-46.3-24.39-93-54.96-129.63-7.3-8.75-15.42-16.78-24.27-23.96-2.24-1.82-5.46,1.36-3.2,3.2h0Z"/>
      <path class="cls-1" d="M459.69,132.37c38.49,31.24,61.02,76.8,73.94,123.84,6.64,24.18,11.13,49.06,13.83,73.99,1.5,13.79,2.27,28.77-3.75,41.68-5.2,11.16-15.03,19-26.08,23.96-11.62,5.22-24.14,6.76-36.68,8.05s-26.52,2.81-38.12,9.41c-22.76,12.95-30.18,40.04-37.6,63.25-4.37,13.68-9.57,27.61-19.63,38.21-9.32,9.82-21.83,16.29-35.03,19.06-13.98,2.93-27.95,1.13-40.87-4.83-11.51-5.31-22.7-12.62-35.64-13.69-13.61-1.13-24.84,6.6-35.65,13.76-6.01,3.98-12.12,7.64-19,9.9-6.5,2.14-13.28,3.25-20.1,3.72-13.65.93-27.92.14-41.46-1.86-12.36-1.83-24.94-5.98-32.42-16.64-8.13-11.57-10.01-26.71-11.1-40.44-1.18-14.92-1.1-29.98-3.62-44.77-2.29-13.44-6.81-26.77-15.43-37.5s-21.84-17-29.36-29.03c-6.74-10.78-9.72-23.42-12.15-35.75-3.02-15.29-6-30.72-6.96-46.29-1.56-25.51,3.41-53.97,23.69-71.54,18.15-15.72,43.83-17.28,64.38-28.55,10.04-5.51,18.17-13.45,23.79-23.44,5.6-9.95,8.8-21.04,11.79-32s5.82-22.52,10.73-33.03,12.34-19.89,21.64-27.12c18.45-14.35,42.61-20.67,65.73-20.44,30.18.29,59.09,10.75,86.92,21.44,27.11,10.42,54.81,20.65,78.92,37.19,11.94,8.19,22.77,17.84,34.06,26.88,2.31,1.85,5.62-1.41,3.28-3.28-11.83-9.47-23.19-19.59-35.75-28.12-12.35-8.38-25.72-15.15-39.37-21.13-13.42-5.88-27.12-11.11-40.79-16.35-14.49-5.56-29.1-10.93-44.12-14.91-26.13-6.92-53.67-9.15-79.82-1.13-22.55,6.92-43.06,21.19-53.76,42.66-10.56,21.2-11.75,45.93-23.29,66.68-5.92,10.64-14.64,18.41-25.53,23.76-10.77,5.29-22.47,8.29-33.72,12.33s-22.5,9.27-31.2,17.89c-8.75,8.67-14.7,19.86-18.24,31.59-8.67,28.72-2.51,59.46,3.15,88.14,2.51,12.72,5.67,25.75,12.62,36.86,3.53,5.65,8.03,10.4,13.14,14.63,5.66,4.69,11.68,8.97,16.4,14.68,20,24.18,15.57,58.41,19,87.44,1.54,13.08,4.33,26.86,12.77,37.38s20.87,14.52,33.4,16.38c13.4,1.99,27.39,2.85,40.92,2.13,14.59-.77,27.95-4.53,40.28-12.44,11.34-7.27,22.68-16.54,37.02-14.97,13.27,1.45,24.74,9.87,36.82,14.87,25.57,10.58,56.98,3.67,76.37-15.96,20.3-20.55,21.78-51.07,34.39-75.81,5.83-11.43,13.99-21.72,25.75-27.38,12.54-6.04,26.92-6.46,40.5-8.02,24.15-2.77,50.56-11.99,60.32-36.46,5.29-13.26,4.55-28.07,3-41.98-1.43-12.81-3.34-25.58-5.69-38.25-9.05-48.81-25.58-98.06-57.77-136.68-7.69-9.22-16.24-17.69-25.57-25.26-2.3-1.87-5.6,1.4-3.28,3.28h0Z"/>
      <path class="cls-1" d="M467.48,120.11c40.48,32.85,64.11,80.8,77.65,130.27,6.96,25.44,11.65,51.61,14.46,77.83,1.59,14.81,2.38,30.96-4.42,44.68-5.61,11.32-15.78,19.29-27.15,24.35-12.55,5.58-26.06,7.07-39.58,8.42s-27.83,2.96-39.87,10.11c-23.59,14.01-30.95,42.52-38.65,66.89-4.56,14.44-10.05,29.17-20.67,40.34-9.71,10.21-22.7,16.96-36.45,19.82-15.07,3.14-29.94.91-43.77-5.63-11.82-5.58-23.41-13-36.74-14.12-14.67-1.23-26.66,7.3-38.29,14.97-6.04,3.98-12.23,7.61-19.13,9.89s-14.38,3.52-21.76,3.99c-14.18.91-28.95.1-43.01-1.95-12.79-1.86-25.97-6.04-33.94-16.91-8.79-11.99-10.87-27.9-12.04-42.3-1.28-15.73-1.13-31.58-3.66-47.2-2.34-14.45-7.08-28.84-16.37-40.36-9.03-11.2-22.59-17.56-30.5-29.82-7.41-11.48-10.63-25.08-13.24-38.32-3.11-15.75-6.19-31.64-7.28-47.68-1.86-27.21,3.21-57.71,24.9-76.49,19.15-16.58,46.23-18.21,67.93-30.09,10.65-5.84,19.25-14.28,25.18-24.89s9.11-21.78,12.2-33.12,6.13-23.83,11.27-34.98,12.61-20.67,22.16-28.28c19.32-15.38,44.95-22.07,69.34-21.8,31.81.36,62.29,11.35,91.63,22.63,28.58,10.99,57.79,21.77,83.19,39.21,12.59,8.64,24.01,18.81,35.91,28.34,2.37,1.9,5.76-1.45,3.37-3.37-12.47-9.98-24.44-20.65-37.67-29.63s-27.1-15.97-41.49-22.28-28.57-11.71-42.97-17.23c-15.27-5.86-30.66-11.51-46.49-15.7-27.42-7.26-56.35-9.71-83.81-1.31-23.86,7.3-45.36,22.47-56.46,45.29s-12.16,48.13-24.29,69.82c-6.24,11.17-15.44,19.34-26.88,24.95-11.36,5.57-23.71,8.74-35.59,12.99-12,4.3-23.71,9.76-32.88,18.84s-15.76,21.42-19.45,34.07c-8.84,30.27-2.25,62.63,3.77,92.79,2.67,13.36,6.09,27.05,13.56,38.62,3.82,5.92,8.67,10.82,14.12,15.26,5.76,4.69,11.78,9.08,16.56,14.83,21.33,25.69,16.26,62.25,20.03,93.08,1.67,13.71,4.74,28.09,13.79,38.98s21.91,14.73,34.86,16.62c14.19,2.07,29.03,2.99,43.35,2.17,14.78-.84,28.54-4.62,41.09-12.57s24.36-17.98,39.83-16.27c14.01,1.55,26.1,10.45,38.82,15.76,26.86,11.2,59.79,4.11,80.09-16.68,21.13-21.64,22.68-53.56,35.55-79.62,5.94-12.03,14.31-23.06,26.54-29.19,13.35-6.7,28.81-7.05,43.36-8.67,25.03-2.79,52.68-12.12,63.21-37.29,5.86-14.01,5.24-29.69,3.62-44.48-1.46-13.35-3.43-26.67-5.84-39.88-9.42-51.6-26.73-103.71-60.73-144.55-8.08-9.7-17.07-18.6-26.87-26.56-2.36-1.91-5.75,1.43-3.37,3.37h0Z"/>
      <path class="cls-1" d="M475.31,107.93c42.7,34.65,67.48,85.33,81.58,137.54,7.23,26.75,12.13,54.28,14.96,81.85,1.56,15.24,2.19,31.79-4.83,45.88-6.04,12.12-17.11,20.6-29.38,25.84-13.02,5.56-26.9,7.03-40.85,8.36s-29.73,3.08-42.46,10.94c-24.57,15.16-31.79,45.3-39.85,70.95-4.69,14.94-10.4,30.13-21.3,41.73s-24.33,18.22-39.11,21.07c-15.72,3.03-31.06.39-45.38-6.48-12.48-5.99-24.88-13.88-39.05-14.76-15.07-.94-27.41,7.9-39.38,15.79-6.34,4.18-12.83,7.98-20.07,10.38-7.4,2.45-15.12,3.7-22.88,4.2-14.9.96-30.43.11-45.2-2.04-13.46-1.96-27.32-6.35-35.69-17.79-9.23-12.61-11.39-29.33-12.6-44.48-1.32-16.51-1.13-33.15-3.77-49.54-2.44-15.15-7.41-30.25-17.15-42.33s-23.28-18.07-31.59-30.54-11.44-26.18-14.22-40.08c-3.29-16.46-6.52-33.08-7.77-49.83-2.15-28.69,2.85-60.86,25.44-80.97,20.06-17.84,48.76-19.57,71.76-32.01,11.11-6.01,20.15-14.7,26.43-25.67s9.9-23.32,13.22-35.48,6.38-24.82,11.66-36.46c5.36-11.82,13.28-22.04,23.47-30.1,20.35-16.12,47.36-23.04,73.01-22.57,33.18.61,64.99,12.06,95.61,23.83,30.02,11.54,60.7,22.88,87.39,41.2,13.23,9.09,25.25,19.79,37.76,29.81,2.43,1.94,5.9-1.49,3.45-3.45-13.1-10.49-25.68-21.7-39.59-31.14-13.68-9.29-28.49-16.79-43.62-23.42s-30.61-12.54-46.05-18.45-31.28-11.69-47.41-15.99c-28.99-7.73-59.59-10.5-88.64-1.55-24.79,7.64-47.1,23.46-58.58,47.2s-12.77,51.21-25.9,74.12c-6.55,11.43-16.14,19.81-27.92,25.59s-25.49,9.33-38.23,13.94-24.85,10.44-34.38,20.11-16.04,22.18-19.84,35.2c-9.34,32.03-2.27,66.39,4.19,98.27,2.8,13.86,6.45,28.04,14.3,40,4.09,6.23,9.28,11.33,15.06,16s12.04,9.28,16.93,15.16c22.43,26.96,17.05,65.38,20.94,97.75,1.73,14.39,4.93,29.5,14.43,40.92,9.07,10.91,23,15.47,36.59,17.45,14.9,2.17,30.49,3.13,45.53,2.27s29.96-4.85,43.14-13.2,25.11-18.53,41.02-17.16c14.86,1.28,27.74,10.77,41.11,16.48,28.03,11.98,62.27,5.14,83.76-16.51,22.73-22.89,24.13-56.99,37.7-84.77,6.02-12.34,14.51-23.77,26.9-30.25,13.88-7.27,30.09-7.7,45.34-9.29,26.43-2.75,55.93-12.16,67.25-38.72,6.23-14.61,5.69-30.95,4.05-46.43-1.51-14.17-3.59-28.31-6.13-42.33-9.82-54.11-27.91-108.8-63.55-151.64-8.47-10.18-17.9-19.52-28.18-27.86-2.42-1.96-5.89,1.47-3.45,3.45h0Z"/>
      <path class="cls-1" d="M483.13,95.75c45.5,36.92,71.47,91.21,86.07,146.92,7.47,28.52,12.82,58.06,15.24,87.46,1.3,15.79.99,32.69-7.37,46.68-7.39,12.36-20.04,20.58-33.36,25.37-14.37,5.17-29.43,5.96-44.49,7.53s-30.79,4.51-43.27,14.15c-24.18,18.68-29.67,50.79-38.82,78.05-4.83,14.41-11.23,28.62-22.23,39.42-9.77,9.59-22.31,16.13-35.61,19.21s-27.12,2.61-39.91-1.81c-14.46-4.99-27.05-14.46-41.91-18.43-6.94-1.85-14.18-2.26-21.2-.64s-13.9,5.3-20.13,9.25-12.22,8.34-18.68,11.94c-7.05,3.92-14.67,6.49-22.58,8.01-16.27,3.13-33.19,2.04-49.6.71-14.25-1.16-29.87-3.22-41.42-12.42-12.69-10.1-16.98-26.91-19.09-42.26-2.45-17.83-1.96-35.91-3.82-53.79-1.55-14.95-4.77-30.02-11.97-43.35-3.49-6.47-7.98-12.41-13.37-17.42-5.83-5.42-12.5-9.84-18.32-15.26-11.47-10.68-17.25-25.3-20.97-40.22-4.05-16.2-6.96-32.91-9.23-49.45-4.31-31.41-3.28-67.08,18.23-92.56,19.1-22.62,49.51-25.77,75.13-37.18,12.24-5.45,23.01-13.22,30.83-24.21s12.26-23.97,15.95-36.81c3.76-13.11,6.77-26.49,11.71-39.23s12.53-24.59,22.98-33.89c20.65-18.38,49.27-26.56,76.51-26.68,35.22-.16,69.16,11.82,101.64,24.26,31.84,12.2,64.45,24.14,92.83,43.42,14.22,9.66,27.08,21.14,40.48,31.87,2.49,1.99,6.05-1.52,3.54-3.54-14.01-11.22-27.44-23.21-42.36-33.24s-30.23-17.62-46.26-24.58-32.53-13.27-48.94-19.53c-16.67-6.36-33.51-12.41-50.82-16.82-30.71-7.82-63.21-10.09-93.57.39-12.85,4.44-24.99,10.96-35.33,19.83-10.64,9.12-18.57,20.58-24,33.46-10.78,25.56-12.25,55.52-28.66,78.58-17.22,24.18-48.25,27.84-73.79,38.54-13.37,5.6-25.18,13.5-34.02,25.13s-14.4,25.89-17.07,40.3c-3.22,17.41-2.32,35.24.04,52.7s5.31,34.65,9.61,51.48c3.75,14.7,9.62,29.3,20.6,40.14,5.67,5.6,12.33,10.04,18.28,15.3s10.79,11.5,14.49,18.55c16.4,31.27,9.71,68.14,15.91,101.72,2.7,14.65,8.29,29.51,20.51,38.81s27.38,11.51,41.94,12.79c16.49,1.45,33.35,2.43,49.77-.21,8.14-1.31,16.11-3.67,23.51-7.33,6.62-3.28,12.66-7.58,18.82-11.64s12.92-8.27,20.3-10.31,15.42-1.4,22.92.98c14.92,4.73,27.72,14.47,42.82,18.78,26.14,7.46,55.86-.16,75.64-18.67,23.7-22.18,26.59-55.99,38.31-84.55,5.51-13.44,13.37-26.82,25.56-35.21,13.79-9.5,30.84-10.9,47.03-12.38,15.15-1.38,29.99-3.42,43.99-9.74,12.92-5.83,24.59-15.21,31.04-28.05,7.27-14.48,7.56-31.15,6.18-46.96s-3.57-30.32-6.18-45.32c-10.02-57.66-28.78-116.12-66.56-161.87-8.98-10.87-19-20.84-29.95-29.72-2.48-2.01-6.04,1.51-3.54,3.54h0Z"/>
    </g>
  </g>
</svg>